# xmcd
#
# Track frame offsets:
#	150
#	14212
#	28090
#	48577
#	61512
#	77045
#	91152
#	106554
#	120942
#	133597
#	151365
#	165747
#	180740
#	196857
#	211327
#	228497
#	247735
#	261735
#	279920
#	289355
#	309395
#	320002
#
# Disc length: 4454 seconds
#
# Revision: 4
# Processed by: cddbd v1.5.2PL0 Copyright (c) Steve Scherf et al.
# Submitted via: audiograbber 1.83.01
#
DISCID=2d116416
DTITLE=Various Artist - John Laws' Country Collection Volume 4
DYEAR=1997
DGENRE=Country
TTITLE0=The Mavericks - I Don't Care If You Love Me Anymore
TTITLE1=Shania Twain - No One Needs To Know
TTITLE2=Lyle Lovett - Private Conversation
TTITLE3=Mary Chapin Carpenter - Let Me Into Your Heart
TTITLE4=Collin Raye - I Think About You
TTITLE5=Asleep At The Wheel - In My Dreams
TTITLE6=4 Runner - Ripples
TTITLE7=Carlene Carter - Hurricane
TTITLE8=LeAnn Rimes - Blue
TTITLE9=Tom T. Hall - You Are My Hero
TTITLE10=Willie Nelson - I'm Waiting Forever
TTITLE11=Wade Hayes - What I Meant To Say
TTITLE12=Ricochet - What Do I Know
TTITLE13=Doug Stone - Why Didn't I Think Of That
TTITLE14=Alison Krauss - Baby Now That I've Found You
TTITLE15=John and Audrey Wiggins - The Dream
TTITLE16=Alabama - She Ain't No Ordinary Girl
TTITLE17=The Beach Boys - Long Tall Texan
TTITLE18=Don Williams - My Rifle, My Pony And Me
TTITLE19=Kenny Loggins - For The First Time
TTITLE20=Waylon Jennings - I Never Cared For You
TTITLE21=Shawn Colvin - Back To Salome
EXTD=YEAR: 1997
EXTT0=
EXTT1=
EXTT2=
EXTT3=
EXTT4=
EXTT5=
EXTT6=
EXTT7=
EXTT8=
EXTT9=
EXTT10=
EXTT11=
EXTT12=
EXTT13=
EXTT14=
EXTT15=
EXTT16=
EXTT17=
EXTT18=
EXTT19=
EXTT20=
EXTT21=
PLAYORDER=
